<svg xmlns="http://www.w3.org/2000/svg" width="15.75" height="15.75" viewBox="0 0 15.75 15.75">
  <defs>
    <style>
      .cls-1 {
        fill: #fff;
        fill-rule: evenodd;
      }
    </style>
  </defs>
  <path id="hemp_icon2.svg" class="cls-1" d="M1041.24,1604.31c-1.02-2.86-.83-6.08.77-9.67l0.04-.08,0.04,0.08c1.63,3.65,1.79,6.92.72,9.81a11.984,11.984,0,0,1,6.57-5.15l0.08-.03-0.03.08a11.968,11.968,0,0,1-5.29,6.43,9.464,9.464,0,0,1,5.74-.15l0.06,0.02-0.05.03a8.816,8.816,0,0,1-6.76,1.68,5.272,5.272,0,0,1,2.83,2.47l0.02,0.03h-0.04a5.053,5.053,0,0,1-3.65-2.44l0.19,2.88h-0.85l0.17-2.82a5.011,5.011,0,0,1-3.61,2.38h-0.04l0.02-.03a5.272,5.272,0,0,1,2.83-2.47,8.785,8.785,0,0,1-6.75-1.68l-0.05-.03,0.06-.02a9.428,9.428,0,0,1,5.73.15,11.968,11.968,0,0,1-5.29-6.43l-0.03-.08,0.08,0.03a12.029,12.029,0,0,1,6.49,5.01" transform="translate(-1034.19 -1594.56)"/>
</svg>
