<svg xmlns="http://www.w3.org/2000/svg" width="15.75" height="15.75" viewBox="0 0 15.75 15.75">
  <defs>
    <style>
      .cls-1 {
        fill: #008e43;
        fill-rule: evenodd;
      }
    </style>
  </defs>
  <path id="hemp_icon1.svg" class="cls-1" d="M479.239,1603.31c-1.015-2.86-.826-6.08.775-9.67l0.037-.08,0.037,0.08c1.628,3.65,1.8,6.92.723,9.81a11.958,11.958,0,0,1,6.574-5.15l0.077-.03-0.03.08a11.966,11.966,0,0,1-5.292,6.43,9.45,9.45,0,0,1,5.736-.15l0.061,0.02-0.052.03a8.8,8.8,0,0,1-6.755,1.68,5.248,5.248,0,0,1,2.83,2.47l0.019,0.03h-0.036a5.025,5.025,0,0,1-3.648-2.44l0.181,2.88h-0.85l0.178-2.82a5.027,5.027,0,0,1-3.614,2.38h-0.035l0.018-.03a5.248,5.248,0,0,1,2.83-2.47,8.8,8.8,0,0,1-6.755-1.68l-0.052-.03,0.061-.02a9.453,9.453,0,0,1,5.737.15,11.958,11.958,0,0,1-5.292-6.43l-0.031-.08,0.078,0.03a12.014,12.014,0,0,1,6.49,5.01" transform="translate(-472.188 -1593.56)"/>
</svg>
